<svg version="1.2" xmlns="http://www.w3.org/2000/svg" viewBox="0 0 755 112" width="755" height="112" id="calabaz">
                    <path fill= "none" stroke= "#231f20" stroke-linecap= "round" stroke-linejoin= "round" stroke-width= "9" class="s0" d="m61.1 61.7c-19.3-9.5-72.2 14-50.5 37.8 23.2 25.6 101.4-32 128.6-38.8-27.3 12.8-55.6 57.5-9.7 28.3 29.2-18.6 7.6-2.8 30 3.7 25.3 8.2 40.7-6.4 48.8-31.8 3.2-5.9 16.3-50.7-0.3-48.1-16.5 1.1-7.6 64.4-1.8 73.6 14.4 22.9 17.7 11 39 1 22.8-10 47-16.9 69.6-19.3-10.8 8.7-27.5 18.8-27.9 32.3 9.2 4.2 27.8-19.1 31.9-16.6 9.2 5.3 13.2 16.3 23.7 16.5 31.6-0.7 66.6-77.9 38.5-95.2-11 16.3-6.1 90.6 17.1 96.6 33.1 8.7 6.6-25.4-5.2-33.2 31.6-3.7 68.1-13.9 101-7.1-18.8 9.5-34.8 24.2-27.6 39.8 5.9 7.3 25.1-18.5 34.3-27.2 16.1 16.9 7.7 29.7 27.5 16.7 7.7-5.8 158.4-77.6 43.5 13.3 21.3-13 119.6-21.4 135.9-16.6"/>
                    <path fill= "#2c2e35" class="s1"  d="m724.3 93.7q0-3.6 1.1-6.4 1.2-2.8 3.2-4.7 2-1.9 4.7-2.9 2.7-1 5.7-1 3.1-0.1 5.8 0.9 2.7 0.9 4.8 2.8 2 1.8 3.2 4.6 1.2 2.8 1.2 6.3 0 3.6-1.1 6.4-1.2 2.8-3.2 4.7-2 1.9-4.7 2.9-2.7 1-5.7 1-3.1 0.1-5.8-0.9-2.7-0.9-4.8-2.8-2-1.8-3.2-4.6-1.1-2.8-1.2-6.3zm3.5-0.1q0.1 2.9 1 5.1 0.9 2.1 2.4 3.6 1.6 1.3 3.7 2.1 2.1 0.7 4.4 0.6 2.4 0 4.4-0.7 2.1-0.7 3.6-2.1 1.5-1.5 2.3-3.7 0.9-2.1 0.9-5.1-0.1-2.9-1-5-0.9-2.2-2.5-3.6-1.5-1.4-3.6-2.2-2-0.7-4.4-0.6-2.4 0-4.5 0.7-2.1 0.8-3.6 2.3-1.4 1.4-2.3 3.6-0.8 2.1-0.8 5zm5.7 7.2l-0.2-14.5q0.9-0.3 2.5-0.4 1.7-0.2 3.1-0.2 2.4-0.1 4 0.9 1.7 1 1.8 3.4 0 1.8-1.2 2.7-1.1 1-2.8 1.1l1.6 0.8 4.2 6-3.4 0.1-4.1-5.8-2.7-0.8 0.1 6.7zm4.8-12.6q-0.6 0-1.1 0-0.6 0-0.9 0.2v4h1.9q1.6-0.1 2.5-0.6 0.9-0.5 0.9-1.7 0-2-3.3-1.9z"/>
</svg>